<?xml version="1.0" encoding="utf-8"?>
<svg xmlns="http://www.w3.org/2000/svg" height="256" width="256" viewBox="0 0 256 256">
  <g>
    <ellipse cy="128" cx="128" ry="128" rx="128" fill="#1653DD" />
    <path id="path1" transform="rotate(0,128,128) translate(38,72.8244467273025) scale(5.62500033527615,5.62500033527615)  " fill="#FFFFFF" d="M6.5239872,8.9019392C6.0269922,8.9019392 5.6219963,9.3089426 5.6219963,9.8089473 5.6219963,10.308952 6.0269922,10.715956 6.5239872,10.715956 7.0209821,10.715956 7.4249776,10.308952 7.4249776,9.8089473 7.4249776,9.3089426 7.0209821,8.9019392 6.5239872,8.9019392z M6.5239872,7.9019296C7.571976,7.9019296 8.4249672,8.7569377 8.4249672,9.8089473 8.4249672,10.859957 7.571976,11.715965 6.5239872,11.715965 5.4749979,11.715965 4.6220068,10.859957 4.6220068,9.8089473 4.6220068,8.7569377 5.4749979,7.9019296 6.5239872,7.9019296z M13.145095,1.2936381C11.926032,2.5936513,9.438042,5.2447045,9.1130279,5.5947478L9.0200714,5.6947253 8.8880514,5.7337277C3.7069915,7.2547538 1.5169765,10.505794 1.0659851,11.264843 1.7710062,13.399894 5.7250084,15.673925 7.2310594,16.38793L7.3660091,16.451956 8.5350221,18.367948 9.6440376,16.586908 9.9870571,16.659906C15.993073,17.937948 19.942131,15.04989 22.554144,13.138841 24.212113,11.925866 25.410118,11.048835 26.475127,11.706868 26.802155,11.909814 27.091158,12.266876 27.458165,12.719888 28.143166,13.568904 29.056136,14.698869 30.643181,15.272917 28.243143,12.213835 29.32518,7.9777906 30.422171,5.3147132 28.921187,6.6417654 27.167147,8.1577861 26.365141,8.7198093 25.973172,8.9938018 25.457116,8.9737814 25.08016,8.6707971 20.928099,5.3286903 14.37905,5.237685 14.313071,5.2367084L13.903095,5.2337177z M13.308925,2.6688758E-05C13.376126,0.00060556341 13.444062,0.010607897 13.511064,0.030612451 13.77907,0.10861703 13.978047,0.32663888 14.030049,0.60063118L14.732079,4.2496898C16.292086,4.3206751 21.853091,4.7887018 25.707117,7.8907526 26.460173,7.4317591 28.053139,6.0847476 30.278189,4.1066816 30.579155,3.8397086 31.017145,3.8176744 31.340145,4.0566928 31.666197,4.2946737 31.776183,4.7197306 31.60919,5.0877187 30.491141,7.5617664 29.02513,12.145841 31.770201,15.04989 32.027161,15.321929 32.073181,15.7219 31.885191,16.043928 31.703184,16.356922 31.344174,16.507927 30.994196,16.421926 28.708172,15.858927 27.487156,14.347911 26.680146,13.348868 26.398161,12.999861 26.132168,12.670876 25.949124,12.557836 25.458153,12.255829 24.386126,13.037887 23.145151,13.945864 20.438105,15.925945 16.374056,18.897987 10.12402,17.707962L9.148063,19.275985C9.0160431,19.48998,8.7860607,19.617973,8.533069,19.617973L8.5300172,19.617973C8.276048,19.616997,8.0460666,19.48699,7.9140466,19.270004L6.6670302,17.22492C5.7489952,16.772947,0.73901789,14.187874,0.042969222,11.319836L0,11.142831 0.080994121,10.979803C0.16796972,10.803835 2.2749764,6.6827209 8.474047,4.8137267 9.0990509,4.144707 11.830085,1.2346157 12.769055,0.23361965 12.912336,0.081364294 13.107321,-0.0017100037 13.308925,2.6688758E-05z" />
  </g>
</svg>

