<?xml version="1.0" encoding="UTF-8" standalone="no"?>
<svg
   xmlns:dc="http://purl.org/dc/elements/1.1/"
   xmlns:cc="http://creativecommons.org/ns#"
   xmlns:rdf="http://www.w3.org/1999/02/22-rdf-syntax-ns#"
   xmlns:svg="http://www.w3.org/2000/svg"
   xmlns="http://www.w3.org/2000/svg"
   xmlns:sodipodi="http://sodipodi.sourceforge.net/DTD/sodipodi-0.dtd"
   xmlns:inkscape="http://www.inkscape.org/namespaces/inkscape"
   height="256"
   width="256"
   viewBox="0 0 256 256"
   id="svg2"
   version="1.1"
   inkscape:version="0.91 r13725"
   sodipodi:docname="logo.svg"
   inkscape:export-filename="D:\Projekty\Aqua-Pi\docs\logo.png"
   inkscape:export-xdpi="90"
   inkscape:export-ydpi="90">
  <metadata
     id="metadata13">
    <rdf:RDF>
      <cc:Work
         rdf:about="">
        <dc:format>image/svg+xml</dc:format>
        <dc:type
           rdf:resource="http://purl.org/dc/dcmitype/StillImage" />
        <dc:title />
      </cc:Work>
    </rdf:RDF>
  </metadata>
  <defs
     id="defs11" />
  <sodipodi:namedview
     pagecolor="#ffffff"
     bordercolor="#666666"
     borderopacity="1"
     objecttolerance="10"
     gridtolerance="10"
     guidetolerance="10"
     inkscape:pageopacity="0"
     inkscape:pageshadow="2"
     inkscape:window-width="1920"
     inkscape:window-height="1017"
     id="namedview9"
     showgrid="false"
     inkscape:zoom="2.6074564"
     inkscape:cx="165.92682"
     inkscape:cy="124.16565"
     inkscape:window-x="-8"
     inkscape:window-y="-8"
     inkscape:window-maximized="1"
     inkscape:current-layer="svg2" />
  <circle
     style="fill:#1653dd;fill-opacity:1;stroke:none;stroke-width:14.23752308;stroke-linejoin:round;stroke-miterlimit:4;stroke-dasharray:none;stroke-opacity:1"
     id="path4135"
     cx="128"
     cy="128"
     r="128" />
  <g
     id="g4">
    <circle
       cy="128"
       cx="128"
       id="ellipse6"
       fill="#1653DD"
       ry="128"
       rx="128" />
    <path
       id="path1"
       transform="matrix(5.6250003,0,0,5.6250003,38,72.824447)"
       d="m 6.1710317,9.363724 c -0.3804696,0.013099 -0.7826664,0.3831864 -0.7814636,0.762375 0.00125,0.393936 0.382142,0.800278 0.7573582,0.798534 0.377927,-0.0018 0.7866598,-0.376599 0.7925158,-0.762376 C 6.9457644,9.7457657 6.5678383,9.3500625 6.1710317,9.363724 Z M 6.158979,8.2552398 c 1.0479888,0 1.90098,0.8550081 1.90098,1.9070172 0,1.05101 -0.8529912,1.907018 -1.90098,1.907018 -1.0489893,0 -1.9019804,-0.856008 -1.9019804,-1.907018 0,-1.0520091 0.8529911,-1.9070172 1.9019804,-1.9070172 z M 12.76158,2.358959 C 11.542517,3.6589722 9.3102035,5.9179873 8.9851894,6.2680306 5.1708416,7.1682444 2.0688687,9.2175795 1.698619,11.152588 c 1.1988282,2.486648 4.415503,3.778663 5.921554,4.492668 l 0.1349497,0.06403 0.801937,1.396365 0.8909589,-1.166454 0.3430195,0.073 c 6.0060159,1.278042 9.6141709,-1.328772 12.2261839,-3.239821 1.657969,-1.212975 3.358806,-2.328637 4.423815,-1.670604 0.327028,0.202946 0.616031,0.560008 0.983038,1.01302 0.766159,0.784099 0.985892,1.310114 2.030585,1.884635 C 27.798403,11.259013 28.541565,9.0755136 29.44404,6.6393452 27.943056,7.9663974 27.047831,8.788456 26.245825,9.3504792 25.853856,9.6244717 25.3378,9.6044513 24.960844,9.301467 20.808783,5.9593602 13.862704,5.8304836 13.796725,5.829507 L 13.386749,5.826517 Z M 13.308925,2.6688758e-5 C 13.376126,6.0556341e-4 13.444062,0.0106079 13.511064,0.03061245 c 0.268006,0.07800458 0.466983,0.29602643 0.518985,0.57001873 l 0.70203,3.64905862 c 1.560007,0.070985 7.121012,0.539012 10.975038,3.6410628 0.753056,-0.4589935 2.346022,-1.806005 4.571072,-3.784071 0.300966,-0.266973 0.738956,-0.2890072 1.061956,-0.049989 0.326052,0.2379809 0.436038,0.6630378 0.269045,1.0310259 -1.118049,2.4740477 -2.58406,7.0581225 0.161011,9.9621715 0.25696,0.272039 0.30298,0.67201 0.11499,0.994038 -0.182007,0.312994 -0.541017,0.463999 -0.890995,0.377998 -2.286024,-0.562999 -3.50704,-2.074015 -4.31405,-3.073058 -0.281985,-0.349007 -0.547978,-0.677992 -0.731022,-0.791032 -0.490971,-0.302007 -1.562998,0.480051 -2.803973,1.388028 -2.707046,1.980081 -6.771095,4.952123 -13.021131,3.762098 L 9.148063,19.275985 C 9.0160431,19.48998 8.7860607,19.617973 8.533069,19.617973 l -0.00305,0 C 8.276048,19.616997 8.0460666,19.48699 7.9140466,19.270004 L 6.6670302,17.22492 C 4.0144575,16.219555 0.40869148,14.075674 0,11.142831 0.89064403,7.6835668 4.6960921,5.7932207 8.474047,4.8137267 9.0990509,4.144707 11.830085,1.2346157 12.769055,0.23361965 12.912336,0.08136429 13.107321,-0.00171 13.308925,2.6688758e-5 Z"
       inkscape:connector-curvature="0"
       style="fill:#ffffff"
       sodipodi:nodetypes="ssssssssssccccccccccccccccccscccccccccccccccsccccccs" />
  </g>
</svg>
